<?xml version="1.0"?>
<svg xmlns="http://www.w3.org/2000/svg" width="36" height="36" viewBox="0 0 36 36" fill="none">
<path d="M25.1287 31.501C24.8925 31.501 24.6512 31.471 24.4123 31.4085L5.08173 26.232C3.59052 25.8207 2.70175 24.2782 3.09177 22.7881L5.21677 14.6392C5.34678 14.1391 5.85812 13.8354 6.36053 13.9693C6.86065 14.0993 6.88117 14.6118 6.75002 15.113L4.62479 23.2633C4.25001 24.3785 5.07303 24.6576 5.57315 24.7952L24.8925 29.9692C25.5001 30.2119 26.3334 29.7952 26.3334 28.9383L26.9933 26.2757C27.1185 25.7733 27.3237 25.4682 27.8261 25.5909C28.3288 25.7158 28.635 26.2233 28.5112 26.7257L27.8488 29.4009C27.5149 30.6671 26.375 31.501 25.1287 31.501Z" fill="black"/>
<path d="M30.1872 24.0007H10.8116C9.26043 24.0007 7.99902 23.1285 7.99902 21.1881V6.81258C7.99902 5.2614 9.26043 4 10.8116 4H30.1872C31.7384 4 32.9998 5.2614 32.9998 6.81258V21.1881C32.9998 22.7393 31.7384 24.0007 30.1872 24.0007ZM10.8116 5.62842C10.0832 5.62842 9.66651 6.29506 9.66651 6.81258V21.1881C9.66651 21.8785 10.2941 22.2952 10.8116 22.2952H30.1872C30.7048 22.2952 31.3333 21.7057 31.3333 21.1881V6.81258C31.3333 6.29506 30.7048 5.62842 30.1872 5.62842H10.8116Z" fill="black"/>
<path d="M14.2492 12.7504C12.8703 12.7504 11.749 11.6291 11.749 10.2503C11.749 8.87145 12.8703 7.75012 14.2492 7.75012C15.628 7.75012 16.7491 8.87145 16.7491 10.2503C16.7491 11.6291 15.628 12.7504 14.2492 12.7504ZM14.2498 8.96178C13.5059 8.96178 12.8925 9.59831 12.8925 10.2503C12.8925 11.0869 13.5151 11.6343 14.2514 11.6317C15.0385 11.6289 15.6656 11.0451 15.6656 10.2503C15.6656 9.45542 14.9938 8.96178 14.2498 8.96178Z" fill="black"/>
<path d="M8.96148 22.7256C8.72161 22.7256 8.4815 22.6343 8.29908 22.4507C7.93286 22.0845 7.93286 21.4905 8.29908 21.1243L13.9492 15.4742C14.8043 14.6191 16.1955 14.6191 17.0493 15.4742L18.5606 16.9855L23.2031 11.4128C23.6181 10.9152 24.227 10.6277 24.8733 10.624C25.5683 10.5854 26.1309 10.9015 26.5495 11.3929L32.7723 18.653C33.1097 19.0455 33.0634 19.6381 32.6709 19.9755C32.2772 20.3131 32.0628 20.1554 31.7251 19.7629L25.5001 12.5002C25.4174 12.4014 25.1563 12.1362 24.8733 12.1369C24.5916 12.1376 24.3325 12.4027 24.2501 12.5002L19.25 18.5452C19.25 18.5452 18.5606 19.2819 18 18.5452L16.3334 16.8785C15.9167 16.4618 15.5 16.0452 14.6667 16.8785L9.43325 22.1108C9.2506 22.2944 9.20159 22.7256 8.96148 22.7256Z" fill="black"/>
</svg>
