<?xml version="1.0"?>
<svg xmlns="http://www.w3.org/2000/svg" width="36" height="36" viewBox="0 0 36 36" fill="none">
<path d="M20.5 9H5.5C3.70768 9.00203 3.00203 9.70768 3 11.5V24C3.00203 25.7923 3.70768 26.2675 5.5 26.2695H20.5C22.2923 26.2675 22.998 25.7923 23 24V11.5C22.998 9.70768 22.2923 9.00203 20.5 9ZM21.125 23.0227C21.124 24.098 20.7088 24.6237 19.6333 24.625H6.24676C5.17127 24.6237 4.87627 24.098 4.875 23.0227V12.2468C4.87627 11.1715 5.17127 10.6946 6.24676 10.6934H19.6333C20.7088 10.6946 21.124 11.1715 21.125 12.2468V23.0227Z" fill="#1A1A1A"/>
<path d="M32.6731 10.6905C32.4707 10.5748 32.2219 10.5769 32.021 10.6953L24.8416 14.9344C24.6437 15.0513 24.5225 15.2639 24.5225 15.4937V19.4096C24.5225 19.6102 24.615 19.7997 24.7736 19.9227L31.953 25.4965C32.1488 25.6484 32.4141 25.6758 32.6368 25.5668C32.8595 25.4577 33.0006 25.2314 33.0006 24.9836V11.2544C33.0006 11.0213 32.8755 10.8062 32.6731 10.6905ZM31.1252 22.125L26.1252 18.4668V16.254L31.1252 13.375V22.125Z" fill="#1A1A1A"/>
</svg>
