<svg width="36" height="36" viewBox="0 0 36 36" fill="none" xmlns="http://www.w3.org/2000/svg">
<path d="M15.3239 23.8662L14.3114 24.8724C13.8872 25.2899 13.3159 25.5239 12.7207 25.5239C12.1255 25.5239 11.5542 25.2899 11.1301 24.8724C10.9233 24.6676 10.7591 24.4239 10.647 24.1553C10.535 23.8866 10.4773 23.5985 10.4773 23.3074C10.4773 23.0164 10.535 22.7282 10.647 22.4596C10.7591 22.1909 10.9233 21.9472 11.1301 21.7424L14.8551 18.0486C15.6264 17.2823 17.0789 16.1548 18.1377 17.2048C18.2516 17.3263 18.3889 17.4236 18.5412 17.4909C18.6936 17.5582 18.858 17.5941 19.0245 17.5965C19.191 17.5988 19.3564 17.5676 19.5106 17.5047C19.6648 17.4418 19.8048 17.3485 19.9221 17.2303C20.0395 17.1121 20.1318 16.9714 20.1936 16.8168C20.2554 16.6621 20.2855 16.4966 20.2819 16.33C20.2783 16.1635 20.2413 15.9994 20.1729 15.8475C20.1045 15.6957 20.0063 15.5591 19.884 15.446C18.0864 13.661 15.4264 13.991 13.1101 16.2898L9.38504 19.9849C8.9449 20.4188 8.5957 20.9361 8.35789 21.5066C8.12007 22.0771 7.99841 22.6893 8.00002 23.3074C7.99848 23.9255 8.12018 24.5377 8.35799 25.1081C8.5958 25.6786 8.94495 26.196 9.38504 26.63C10.2722 27.5099 11.4718 28.0025 12.7213 28C13.9301 28 15.1389 27.5437 16.0576 26.63L17.0714 25.6237C17.187 25.5094 17.2789 25.3733 17.3418 25.2234C17.4047 25.0735 17.4374 24.9126 17.438 24.75C17.4386 24.5874 17.407 24.4263 17.3452 24.2759C17.2834 24.1255 17.1925 23.9888 17.0777 23.8737C16.8456 23.641 16.5309 23.5096 16.2023 23.5082C15.8737 23.5068 15.5579 23.6355 15.3239 23.8662ZM26.6141 9.51095C24.6803 7.59342 21.9777 7.48966 20.1902 9.26469L18.9289 10.5172C18.6959 10.7486 18.5643 11.0631 18.5631 11.3916C18.5619 11.72 18.6913 12.0354 18.9227 12.2685C19.1541 12.5016 19.4686 12.6331 19.797 12.6343C20.1255 12.6355 20.4409 12.5061 20.674 12.2747L21.9365 11.0235C22.8615 10.1035 24.0753 10.4847 24.869 11.2697C25.289 11.6885 25.5215 12.2435 25.5215 12.8347C25.5215 13.426 25.289 13.981 24.869 14.3985L20.894 18.3411C19.0764 20.1424 18.2239 19.2986 17.8602 18.9373C17.7448 18.8228 17.6079 18.732 17.4575 18.6703C17.307 18.6086 17.1459 18.5772 16.9832 18.5778C16.8206 18.5784 16.6597 18.611 16.5097 18.6737C16.3597 18.7365 16.2235 18.8282 16.1089 18.9436C15.9943 19.059 15.9036 19.1958 15.8419 19.3463C15.7802 19.4968 15.7487 19.6579 15.7493 19.8205C15.7499 19.9832 15.7825 20.1441 15.8453 20.2941C15.908 20.4441 15.9997 20.5803 16.1151 20.6949C16.9502 21.5224 17.9027 21.9324 18.9002 21.9324C20.1215 21.9324 21.4127 21.3174 22.6415 20.0986L26.6166 16.1573C27.0557 15.7227 27.4042 15.2052 27.6418 14.6348C27.8793 14.0645 28.0012 13.4526 28.0003 12.8347C28.0015 12.2164 27.8795 11.6041 27.6414 11.0334C27.4034 10.4628 27.0542 9.94522 26.6141 9.51095Z" fill="black"/>
</svg>
