<svg width="20" height="14" viewBox="0 0 20 14" fill="none" xmlns="http://www.w3.org/2000/svg">
<path d="M3.6852 1.62125e-05L16.3152 1.62125e-05C16.8138 -0.000705719 17.3025 0.139794 17.7245 0.405254C18.1466 0.670714 18.4849 1.05028 18.7002 1.50002C18.9523 2.03363 19.0493 2.62731 18.9804 3.21342C18.9114 3.79952 18.6792 4.35447 18.3102 4.81502L11.9952 12.465C11.7474 12.751 11.441 12.9803 11.0968 13.1375C10.7526 13.2946 10.3786 13.376 10.0002 13.376C9.62181 13.376 9.24784 13.2946 8.90363 13.1375C8.55942 12.9803 8.25303 12.751 8.0052 12.465L1.6902 4.81502C1.32119 4.35447 1.08898 3.79952 1.02002 3.21342C0.951071 2.62731 1.04815 2.03363 1.3002 1.50002C1.51551 1.05028 1.85379 0.670714 2.27587 0.405254C2.69795 0.139794 3.18658 -0.000705719 3.6852 1.62125e-05ZM17 2.5L3 2.5L10.0002 11L17 2.5Z" fill="black"/>
</svg>
