<svg width="36" height="36" viewBox="0 0 36 36" fill="none" xmlns="http://www.w3.org/2000/svg">
<path d="M18 6C11.3725 6 6 11.3725 6 18C6 24.6275 11.3725 30 18 30C24.6275 30 30 24.6275 30 18C30 11.3725 24.6275 6 18 6ZM15.0625 22.9738H12.6325V15.1537H15.0625V22.9738ZM13.8325 14.1937C13.065 14.1937 12.5688 13.65 12.5688 12.9775C12.5688 12.2912 13.08 11.7638 13.8637 11.7638C14.6475 11.7638 15.1275 12.2912 15.1425 12.9775C15.1425 13.65 14.6475 14.1937 13.8325 14.1937ZM23.9375 22.9738H21.5075V18.64C21.5075 17.6313 21.155 16.9462 20.2763 16.9462C19.605 16.9462 19.2063 17.41 19.03 17.8563C18.965 18.015 18.9488 18.24 18.9488 18.4638V22.9725H16.5175V17.6475C16.5175 16.6713 16.4862 15.855 16.4537 15.1525H18.565L18.6763 16.2388H18.725C19.045 15.7288 19.8288 14.9762 21.14 14.9762C22.7388 14.9762 23.9375 16.0475 23.9375 18.35V22.9738Z" fill="black"/>
</svg>
