<svg width="36" height="36" viewBox="0 0 36 36" fill="none" xmlns="http://www.w3.org/2000/svg">
<path d="M19.4998 27C19.4998 27.8284 18.8283 28.4999 17.9999 28.4999C17.1715 28.4999 16.5 27.8284 16.5 27C16.5 26.1717 17.1715 25.5001 17.9999 25.5001C18.8283 25.5001 19.4998 26.1717 19.4998 27Z" fill="black"/>
<path d="M18 36C8.0744 36 0 27.9256 0 18C0 8.0744 8.0744 0 18 0C27.9256 0 36 8.0744 36 18C36 27.9256 27.9256 36 18 36ZM18 2.25C9.31503 2.25 2.25 9.31503 2.25 18C2.25 26.685 9.31503 33.75 18 33.75C26.685 33.75 33.75 26.685 33.75 18C33.75 9.31503 26.685 2.25 18 2.25Z" fill="black"/>
<path d="M18.0001 22.1251C17.3791 22.1251 16.8751 21.6211 16.8751 21.0001V19.485C16.8751 18.0571 17.7812 16.7775 19.1281 16.302C20.9205 15.6706 22.1252 13.7609 22.1252 12.375C22.1252 10.0994 20.2756 8.24988 18.0001 8.24988C15.7245 8.24988 13.875 10.0994 13.875 12.375C13.875 12.996 13.371 13.5 12.75 13.5C12.129 13.5 11.625 12.996 11.625 12.375C11.625 8.86044 14.4842 5.99988 18.0001 5.99988C21.516 5.99988 24.3752 8.86044 24.3752 12.375C24.3752 14.8771 22.3996 17.5336 19.8766 18.4246C19.4267 18.582 19.1251 19.0093 19.1251 19.4864V21.0001C19.1251 21.6211 18.6211 22.1251 18.0001 22.1251Z" fill="black"/>
</svg>
