<svg width="36" height="36" viewBox="0 0 36 36" fill="none" xmlns="http://www.w3.org/2000/svg">
<path d="M18 6C11.367 6 6 11.3675 6 18C6 24.633 11.3675 30 18 30C24.633 30 30 24.6325 30 18C30 11.367 24.6325 6 18 6ZM18 28.125C12.4035 28.125 7.875 23.5962 7.875 18C7.875 12.4035 12.4038 7.875 18 7.875C23.5965 7.875 28.125 12.4038 28.125 18C28.125 23.5965 23.5962 28.125 18 28.125Z" fill="black"/>
<path d="M18 23.6324C18.699 23.6324 19.2656 23.0658 19.2656 22.3668C19.2656 21.6678 18.699 21.1012 18 21.1012C17.301 21.1012 16.7344 21.6678 16.7344 22.3668C16.7344 23.0658 17.301 23.6324 18 23.6324Z" fill="black"/>
<path d="M18 12.0411C17.4822 12.0411 17.0625 12.4609 17.0625 12.9786V19.0158C17.0625 19.5336 17.4822 19.9533 18 19.9533C18.5178 19.9533 18.9375 19.5336 18.9375 19.0158V12.9786C18.9375 12.4609 18.5178 12.0411 18 12.0411Z" fill="black"/>
</svg>
