<svg width="36" height="36" viewBox="0 0 36 36" fill="none" xmlns="http://www.w3.org/2000/svg">
<path d="M25.25 13.5C23.1831 13.5 21.5 11.818 21.5 9.75C21.5 7.68201 23.1831 6 25.25 6C27.3171 6 29 7.68201 29 9.75C29 11.818 27.3171 13.5 25.25 13.5ZM25.25 7.5C24.01 7.5 23 8.50891 23 9.75C23 10.9911 24.01 12 25.25 12C26.49 12 27.5 10.9911 27.5 9.75C27.5 8.50891 26.49 7.5 25.25 7.5Z" fill="black"/>
<path d="M25.25 30C23.1831 30 21.5 28.318 21.5 26.25C21.5 24.182 23.1831 22.5 25.25 22.5C27.3171 22.5 29 24.182 29 26.25C29 28.318 27.3171 30 25.25 30ZM25.25 24C24.01 24 23 25.0089 23 26.25C23 27.4911 24.01 28.5 25.25 28.5C26.49 28.5 27.5 27.4911 27.5 26.25C27.5 25.0089 26.49 24 25.25 24Z" fill="black"/>
<path d="M10.75 21.75C8.68292 21.75 7 20.068 7 18C7 15.932 8.68292 14.25 10.75 14.25C12.8171 14.25 14.5 15.932 14.5 18C14.5 20.068 12.8171 21.75 10.75 21.75ZM10.75 15.75C9.51001 15.75 8.5 16.7589 8.5 18C8.5 19.2411 9.51001 20.25 10.75 20.25C11.99 20.25 13 19.2411 13 18C13 16.7589 11.99 15.75 10.75 15.75Z" fill="black"/>
<path d="M13.36 17.2699C13.0989 17.2699 12.8449 17.1339 12.708 16.892C12.5029 16.532 12.628 16.0739 12.988 15.869L22.267 10.5789C22.6259 10.372 23.0849 10.4979 23.2889 10.859C23.494 11.219 23.3689 11.6769 23.0089 11.882L13.7299 17.1719C13.6129 17.2379 13.486 17.2699 13.36 17.2699Z" fill="black"/>
<path d="M22.6399 25.5199C22.5139 25.5199 22.3869 25.4879 22.2699 25.421L12.9908 20.1309C12.6308 19.9261 12.5059 19.4679 12.7108 19.1079C12.9148 18.747 13.3729 18.622 13.7329 18.828L23.0118 24.1179C23.3718 24.323 23.4968 24.7809 23.2919 25.1409C23.1539 25.3839 22.8999 25.5199 22.6399 25.5199Z" fill="black"/>
</svg>
