<svg width="36" height="36" viewBox="0 0 36 36" fill="none" xmlns="http://www.w3.org/2000/svg">
<path d="M18 6C11.3725 6 6 11.3725 6 18C6 24.6275 11.3725 30 18 30C24.6275 30 30 24.6275 30 18C30 11.3725 24.6275 6 18 6ZM22.8813 15.83C22.8862 15.9325 22.8875 16.035 22.8875 16.135C22.8875 19.26 20.5113 22.8612 16.1638 22.8612C14.8791 22.8634 13.6212 22.4944 12.5412 21.7987C12.725 21.8212 12.9138 21.83 13.105 21.83C14.2125 21.83 15.2313 21.4538 16.04 20.8188C15.5471 20.8091 15.0696 20.6459 14.6739 20.3519C14.2782 20.0579 13.9841 19.6478 13.8325 19.1788C14.1864 19.2461 14.5511 19.2319 14.8988 19.1375C14.3638 19.0293 13.8827 18.7395 13.5371 18.3171C13.1915 17.8947 13.0026 17.3658 13.0025 16.82V16.7913C13.3212 16.9675 13.6863 17.075 14.0738 17.0875C13.5722 16.7537 13.2172 16.2408 13.0813 15.6539C12.9454 15.067 13.0388 14.4503 13.3425 13.93C13.9362 14.66 14.6766 15.2572 15.5157 15.6829C16.3548 16.1086 17.274 16.3533 18.2137 16.4012C18.0943 15.8941 18.1457 15.3618 18.36 14.8869C18.5743 14.412 18.9395 14.0212 19.3988 13.7753C19.8582 13.5294 20.3858 13.4422 20.8999 13.5271C21.4139 13.612 21.8855 13.8644 22.2412 14.245C22.7702 14.1403 23.2775 13.9463 23.7413 13.6713C23.565 14.2189 23.1958 14.684 22.7025 14.98C23.1711 14.9236 23.6286 14.7976 24.06 14.6062C23.7431 15.0811 23.3439 15.4955 22.8813 15.83Z" fill="black"/>
</svg>
