<svg width="20" height="14" viewBox="0 0 20 14" fill="none" xmlns="http://www.w3.org/2000/svg">
<path d="M16.3148 14H3.6848C3.18618 14.0007 2.69755 13.8602 2.27547 13.5947C1.85339 13.3293 1.51511 12.9497 1.2998 12.5C1.04775 11.9664 0.950671 11.3727 1.01962 10.7866C1.08858 10.2005 1.32079 9.64553 1.6898 9.18498L8.0048 1.53498C8.25262 1.24904 8.55902 1.01971 8.90323 0.862538C9.24743 0.705366 9.62141 0.624023 9.9998 0.624023C10.3782 0.624023 10.7522 0.705366 11.0964 0.862538C11.4406 1.01971 11.747 1.24904 11.9948 1.53498L18.3098 9.18498C18.6788 9.64553 18.911 10.2005 18.98 10.7866C19.0489 11.3727 18.9518 11.9664 18.6998 12.5C18.4845 12.9497 18.1462 13.3293 17.7241 13.5947C17.302 13.8602 16.8134 14.0007 16.3148 14ZM3 11.5H17L10 3L3 11.5Z" fill="black"/>
</svg>
