<svg width="72" height="48" viewBox="0 0 72 48" fill="none" xmlns="http://www.w3.org/2000/svg">
<path d="M69.6809 11.9218L36.2279 0.118682C35.7797 -0.0395606 35.2907 -0.0395606 34.8424 0.118682L1.38948 11.9218C0.557736 12.2152 0.00111214 13.0009 1.66391e-06 13.8828C-0.00110881 14.7648 0.553711 15.5517 1.38476 15.8471L34.8377 27.7399C35.0633 27.8201 35.2993 27.8602 35.5351 27.8602C35.7711 27.8602 36.0069 27.8201 36.2325 27.7399L69.6854 15.8471C70.5165 15.5517 71.0712 14.7648 71.0702 13.8828C71.0691 13.0009 70.5125 12.2152 69.6809 11.9218Z" fill="#84ACF8"/>
<path d="M64.7055 34.178V21.3484L61.4616 22.3942V34.178C60.4846 34.688 59.8262 35.6435 59.8262 36.7393C59.8262 37.835 60.4846 38.7906 61.4616 39.3006V46.5289C61.4616 47.3412 62.1878 47.9997 63.0836 47.9997C63.9793 47.9997 64.7055 47.3412 64.7055 46.5289V39.3007C65.6825 38.7908 66.3409 37.8351 66.3409 36.7394C66.3409 35.6436 65.6826 34.688 64.7055 34.178Z" fill="#84ACF8"/>
<path d="M35.5431 32.0236C34.8283 32.0236 34.1244 31.9022 33.4508 31.6627L14.6445 24.977V34.1395C14.6445 36.3811 16.983 38.2768 21.5951 39.7738C25.6152 41.0786 30.5687 41.7972 35.5431 41.7972C40.5174 41.7972 45.4708 41.0786 49.491 39.7738C54.1031 38.2768 56.4416 36.3811 56.4416 34.1395V24.977L37.6355 31.6627C36.9617 31.9022 36.2578 32.0236 35.5431 32.0236Z" fill="#84ACF8"/>
</svg>
